<svg stroke="#363636" stroke-width="1.5" fill="none" xmlns="http://www.w3.org/2000/svg" xmlns:xlink="http://www.w3.org/1999/xlink" version="1.1" id="Layer_1" x="0px" y="0px" viewBox="0 0 512.1 512.1" style="" xml:space="preserve" width="512" height="512">

	<path d="m504.5 497h-27.074219c-25.972656-28.550781-57.363281-50.292969-91.445312-63.925781-.011719-.171875-.019531-.339844-.039063-.511719l-15.554687-123.5c-1.210938-9.597656-16.09375-7.722656-14.882813 1.875l1.707032 13.5625h-113.421876l8.816407-70h95.789062l1.566407 12.4375c1.207031 9.597656 16.09375 7.726562 14.882812-1.875l-10.953125-86.957031c9.832031-2.789063 17.054687-11.84375 17.054687-22.554688v-33.550781h60.515626c17.320312 0 31.417968-14.09375 31.417968-31.417969 0-17.265625-13.996094-31.324219-31.242187-31.421875-4.289063-16.246094-19.050781-28.0625-36.535157-28.0625-12.789062 0-24.535156 6.4375-31.464843 16.847656-1.1875-.175781-2.394531-.265624-3.617188-.265624-7.613281 0-14.53125 3.503906-19.046875 9.144531-4.667968-3.28125-9.746094-6.015625-15.144531-8.101563l-5.257813-42.152344c-.46875-3.753906-3.660156-6.570312-7.441406-6.570312h-25.257812c-3.789063 0-6.984375 2.828125-7.441406 6.59375l-5.132813 42.058594c-3.863281 1.480468-7.605469 3.292968-11.171875 5.445312-8.28125 5-.53125 17.84375 7.75 12.84375 8.609375-5.195312 18.507812-7.941406 28.625-7.941406 28.0625 0 51.324219 20.929688 54.996094 48h-110c.820312-6.132812 2.65625-12.027344 5.488281-17.601562 4.382813-8.625-8.988281-15.421876-13.371094-6.796876-5.050781 9.945313-7.613281 20.675782-7.613281 31.898438 0 .292969.019531.582031.054688.863281v40.183594c0 10.714844 7.222656 19.765625 17.054687 22.558594l-32.050781 254.457031c-.007813.070312-.007813.136719-.015625.207031-22.34375 8.675781-43.386719 20.710938-62.285157 35.800781-12.015624-4.625-24.730468-7.078124-37.585937-7.078124-5.449219 0-10.925781.402343-16.277344 1.203124-9.570312 1.429688-7.351562 16.265626 2.214844 14.835938 4.621094-.691406 9.351563-1.039062 14.0625-1.039062 20.550781 0 40.746094 7.324218 57.453125 20.507812h-116.191406c3.015625-2.40625 6.183594-4.625 9.488281-6.652344 8.246094-5.054687.40625-17.839844-7.84375-12.785156-8.726563 5.351562-16.628906 11.886719-23.542969 19.4375h-27.035156c-9.675781 0-9.675781 15 0 15h497c9.675781 0 9.675781-15 0-15zm-250.007812-257.5 7.621093-60.5h76.773438l7.617187 60.5zm33.238281-75.5v-42h25.535156v42zm68.214843-8.453125c0 4.664063-3.792968 8.453125-8.453124 8.453125h-19.222657v-42h27.675781zm-65.050781-110.890625 3.621094-29.65625h11.988281l3.703125 29.683594c-3.175781-.4375-6.414062-.683594-9.707031-.683594-3.226562 0-6.433594.222656-9.605469.65625zm61.394531 22.074219c1.714844-2.480469 4.566407-4.050781 7.730469-4.050781 1.417969 0 2.78125.308593 4.050781.914062 1.835938.878906 3.953126.972656 5.859376.261719 1.90625-.710938 3.441406-2.167969 4.253906-4.039063 3.625-8.335937 11.835937-13.722656 20.917968-13.722656 12.195313 0 22.195313 9.535156 22.769532 21.707031.105468 2.257813 1.226562 4.351563 3.054687 5.691407 1.820313 1.339843 4.15625 1.785156 6.34375 1.207031 1.363281-.355469 2.773438-.539063 4.191407-.539063 9.050781 0 16.417968 7.367188 16.417968 16.417969 0 9.054687-7.367187 16.421875-16.421875 16.421875h-60.859375c-1.644531-15.453125-8.300781-29.429688-18.308594-40.269531zm-107.234374 55.269531h27.679687v42h-19.226563c-4.660156 0-8.453124-3.792969-8.453124-8.453125zm-3.15625 217.5h117.203124l11.070313 87.902344c-22.261719-7.113282-45.445313-10.851563-68.828125-10.851563-24.027344 0-47.800781 3.667969-70.496094 10.695313zm-47.167969 157.5c-7.980469-8.5-17.035157-15.625-26.796875-21.210938 38.359375-28.589843 85.347656-44.234374 133.40625-44.234374 56.917968 0 112.640625 23.660156 155.292968 65.445312zm0 0" class="jhiWMUuC_0"></path><path d="m151 118c24.8125 0 45-20.1875 45-45s-20.1875-45-45-45-45 20.1875-45 45 20.1875 45 45 45zm0-75c16.542969 0 30 13.457031 30 30s-13.457031 30-30 30-30-13.457031-30-30 13.457031-30 30-30zm0 0" class="jhiWMUuC_1"></path><path d="m36.792969 241h117.171875c20.289062 0 36.796875-16.503906 36.796875-36.792969 0-20.289062-16.507813-36.792969-36.796875-36.792969-1.703125 0-3.394532.117188-5.070313.351563-4.886719-8.746094-14.195312-14.414063-24.613281-14.414063-1.777344 0-3.527344.164063-5.242188.484376-8.085937-12.8125-22.257812-20.792969-37.71875-20.792969-21.082031 0-38.8125 14.566406-43.433593 34.386719-.363281-.011719-.726563-.015626-1.09375-.015626-20.289063 0-36.792969 16.503907-36.792969 36.792969 0 20.289063 16.503906 36.792969 36.792969 36.792969zm0-58.585938c1.878906 0 3.75.242188 5.558593.71875 2.1875.570313 4.519532.128907 6.347657-1.210937 1.824219-1.339844 2.945312-3.433594 3.054687-5.691406.738282-15.804688 13.726563-28.1875 29.566406-28.1875 11.792969 0 22.453126 6.992187 27.160157 17.820312.8125 1.867188 2.347656 3.324219 4.253906 4.035157 1.910156.710937 4.023437.617187 5.863281-.261719 1.777344-.851563 3.691406-1.285157 5.683594-1.285157 6.074219 0 11.339844 4.109376 12.808594 9.996094.511718 2.042969 1.855468 3.777344 3.707031 4.78125 1.851563 1 4.039063 1.179688 6.027344.488282 2.304687-.796876 4.707031-1.203126 7.144531-1.203126 12.015625 0 21.792969 9.777344 21.792969 21.792969s-9.777344 21.792969-21.792969 21.792969h-117.175781c-12.015625 0-21.792969-9.777344-21.792969-21.792969s9.777344-21.792969 21.792969-21.792969zm0 0" class="jhiWMUuC_2"></path><path d="m440.898438 193.003906c-13.714844 0-25.363282 8.972656-29.261719 21.484375-13.523438.773438-24.292969 12.019531-24.292969 25.734375 0 14.214844 11.5625 25.777344 25.777344 25.777344h73.101562c14.214844 0 25.777344-11.5625 25.777344-25.777344 0-14.210937-11.5625-25.773437-25.773438-25.773437-.570312 0-1.136718.019531-1.703124.054687-3.71875-5.410156-9.933594-8.828125-16.820313-8.828125-.640625 0-1.28125.027344-1.914063.089844-5.683593-7.910156-14.894531-12.761719-24.890624-12.761719zm24.476562 28.195313c.726562-.347657 1.511719-.523438 2.328125-.523438 2.492187 0 4.652344 1.683594 5.253906 4.097657.511719 2.042968 1.855469 3.777343 3.707031 4.78125 1.851563 1 4.039063 1.179687 6.027344.488281 1.140625-.394531 2.328125-.59375 3.53125-.59375 5.941406 0 10.777344 4.832031 10.777344 10.777343 0 5.941407-4.835938 10.773438-10.773438 10.773438h-73.105468c-5.941406 0-10.777344-4.835938-10.777344-10.777344s4.835938-10.773437 10.777344-10.773437c.929687 0 1.855468.117187 2.75.351562 2.1875.578125 4.519531.132813 6.347656-1.207031 1.824219-1.339844 2.945312-3.433594 3.050781-5.691406.394531-8.355469 7.257813-14.898438 15.632813-14.898438 6.234375 0 11.867187 3.699219 14.355468 9.421875.8125 1.867188 2.351563 3.324219 4.257813 4.035157 1.90625.714843 4.023437.617187 5.859375-.261719zm0 0" class="jhiWMUuC_3"></path><style data-made-with="vivus-instant">.jhiWMUuC_0{stroke-dasharray:4925 4927;stroke-dashoffset:4926;animation:jhiWMUuC_draw 5022ms linear 0ms forwards;}.jhiWMUuC_1{stroke-dasharray:472 474;stroke-dashoffset:473;animation:jhiWMUuC_draw 482ms linear 5022ms forwards;}.jhiWMUuC_2{stroke-dasharray:903 905;stroke-dashoffset:904;animation:jhiWMUuC_draw 921ms linear 5504ms forwards;}.jhiWMUuC_3{stroke-dasharray:562 564;stroke-dashoffset:563;animation:jhiWMUuC_draw 573ms linear 6426ms forwards;}@keyframes jhiWMUuC_draw{100%{stroke-dashoffset:0;}}@keyframes jhiWMUuC_fade{0%{stroke-opacity:1;}96.42857142857143%{stroke-opacity:1;}100%{stroke-opacity:0;}}</style></svg>