<!--?xml version="1.0" encoding="iso-8859-1"?-->
<!-- Generator: Adobe Illustrator 19.0.0, SVG Export Plug-In . SVG Version: 6.00 Build 0)  -->
<svg stroke="#363636" stroke-width="1.5" fill="none" xmlns="http://www.w3.org/2000/svg" xmlns:xlink="http://www.w3.org/1999/xlink" version="1.1" id="Layer_1" x="0px" y="0px" viewBox="0 0 512.1 512.1" style="" xml:space="preserve" width="512" height="512">

	<g>
		<path d="M469.356,228.298l12.762-39.522c0.837,0.108,1.68,0.182,2.533,0.182c7.951,0,15.111-4.723,18.242-12.034
			c4.06-9.49,0.113-20.423-8.797-25.239l17.024-52.714c2.942-9.201-1.725-19.311-10.626-23.017
			c-9.436-3.929-20.556,0.66-24.481,10.087l-20.568,49.398c-1.381-0.302-2.788-0.465-4.217-0.465
			c-7.953,0-15.114,4.724-18.242,12.035c-3.851,9.001-0.49,19.289,7.467,24.436l-19.099,45.87
			c-13.07-0.81-26.867-0.505-40.934,0.312l5.427-64.7c8.737-1.117,15.907-8.01,17.148-16.928c0.729-5.248-0.627-10.465-3.822-14.692
			c-2.567-3.397-6.083-5.805-10.085-7.007l5.24-62.476c0.797-9.776-6.164-18.586-15.849-20.055c-0.933-0.142-1.881-0.213-2.82-0.213
			c-9.167,0-17.119,6.841-18.494,15.914l-9.288,61.242c-9.339,0.545-17.188,7.681-18.491,17.051
			c-1.256,9.032,4.078,18.082,12.676,21.292l-11.305,74.544c-16.415,1.368-32.191,2.43-46.395,2.169l-5.22-84.574
			c4.007-0.818,7.658-2.834,10.503-5.886c3.612-3.875,5.499-8.925,5.313-14.222c-0.359-10.207-8.243-18.295-18.233-19.063
			l-3.769-61.054c-0.628-9.789-8.791-17.497-18.684-17.548c-10.267,0-18.664,8.353-18.718,18.622l-0.319,61.399
			c-9.95,1.365-17.473,10.096-17.113,20.346c0.342,9.742,7.553,17.545,16.909,18.906l-0.373,71.905
			c-12.685-4.868-25.47-7.678-38.211-8.39l-6.951-48.046c4.034-1.226,7.567-3.677,10.126-7.126
			c3.157-4.254,4.468-9.483,3.692-14.725c-1.421-9.594-9.757-16.837-19.43-16.924l-3.314-22.907
			c-1.391-9.361-9.708-16.346-19.224-16.006c-5,0.185-9.627,2.305-13.032,5.971s-5.177,8.438-4.992,13.437l0.93,25.171
			c-10.297,2.042-17.318,11.841-15.763,22.336c1.31,8.849,8.509,15.686,17.209,16.765l1.865,50.46
			c-5.038,2.176-9.876,4.745-14.454,7.703c-29.076,18.781-45.666,50.854-45.721,88.194L34.142,419.103
			c-11.769-4.812-25.6,0.283-31.41,11.598c-6.238,12.149-1.429,27.11,10.72,33.348l46.442,23.848
			c3.596,1.845,7.47,2.704,11.299,2.679c8.982-0.058,17.721-4.974,22.047-13.398c6.018-11.721,1.492-26.529-9.975-32.919
			l53.935-112.018c2.837-1.497,6.062-1.943,9.258-1.23c3.779,0.843,6.922,3.159,8.851,6.521
			c28.825,50.236,71.045,87.59,122.098,108.025c26.047,10.425,53.369,15.686,79.709,15.685c20.763,0,40.918-3.27,59.338-9.855
			c3.9-1.395,5.932-5.687,4.538-9.587c-1.395-3.9-5.687-5.932-9.587-4.537c-38.388,13.723-85.196,11.671-128.422-5.63
			c-33.392-13.365-80.391-41.834-114.662-101.563c-3.992-6.958-10.77-11.949-18.596-13.695c-6.334-1.414-12.95-0.608-18.723,2.19
			l-28.573-13.128c0.923-30.825,14.909-57.074,38.823-72.52c29.112-18.804,65.98-16.973,96.505-2.727
			c19.767,9.224,43.162,9.17,64.5,8.322c21.245-0.845,42.387-3.193,63.576-4.841c35.885-2.79,84.668-9.042,112.84,19.242
			c14.666,14.722,20.313,38.088,17.264,71.433c-4.013,43.881-23.921,78.393-57.573,99.802c-3.495,2.223-4.525,6.859-2.302,10.354
			c2.224,3.495,6.86,4.527,10.354,2.302c37.717-23.997,60.007-62.411,64.459-111.092c3.479-38.043-3.579-65.319-21.574-83.386
			C483.478,236.477,476.767,231.884,469.356,228.298z M79.897,470.325c-2.426,4.725-8.437,6.647-13.151,4.227l-46.442-23.848
			c-4.791-2.459-6.687-8.359-4.227-13.151c2.43-4.733,8.419-6.655,13.151-4.227l46.442,23.848
			C80.461,459.634,82.357,465.533,79.897,470.325z M69.934,437.367l-22.4-11.502l38.089-79.108l22.877,10.511L69.934,437.367z
			 M121.329,330.625l-6.32,13.125l-22.877-10.511l6.32-13.125L121.329,330.625z M159.311,94.65c0.393-0.422,1.251-1.139,2.594-1.188
			l0.14-0.002c1.832,0,3.419,1.386,3.688,3.194l3.281,22.682l-9.829,1.455l-0.868-23.466
			C158.268,95.982,158.919,95.072,159.311,94.65z M162.39,207.499l-1.73-46.825l14.035-2.078c0,0,6.619,45.748,6.601,45.749
			C174.924,204.836,168.573,205.879,162.39,207.499z M184.405,141.994c0,0-35.56,5.264-35.584,5.268
			c-2.597,0.385-5.102-1.475-5.488-4.074c-0.39-2.637,1.438-5.1,4.074-5.49l35.586-5.268c2.581-0.387,5.104,1.49,5.487,4.074
			C188.869,139.127,187.009,141.588,184.405,141.994z M250.556,40.118c0.012-2.04,1.679-3.699,3.738-3.699
			c1.945,0.01,3.567,1.55,3.692,3.489l3.734,60.497l-11.479,0.404L250.556,40.118z M249.704,218.822
			c-0.025-0.008-0.049-0.017-0.074-0.025l0.406-78.288l14.129-0.497l5.113,82.837C261.735,222.044,255.256,220.71,249.704,218.822z
			 M275.308,124.611l-37.199,1.308l-0.167,0.003c-2.614-0.001-4.732-2.05-4.825-4.665c-0.093-2.641,2.025-4.909,4.662-5.001
			l37.208-1.308l0.188-0.003c2.596,0,4.702,2.049,4.794,4.664C280.062,122.245,277.938,124.519,275.308,124.611z M371.997,49.717
			c0.302-1.989,2.207-3.428,4.234-3.118c1.924,0.292,3.306,2.051,3.148,3.987l-5.149,61.385l-11.433-1.59L371.997,49.717z
			 M344.245,127.828c0.358-2.573,2.886-4.482,5.454-4.123c0,0,34.28,4.767,34.318,4.772c2.603,0.362,4.484,2.852,4.122,5.453
			c-0.361,2.592-2.866,4.484-5.453,4.123c0,0-34.287-4.768-34.318-4.772C345.757,132.918,343.882,130.438,344.245,127.828z
			 M365.282,218.665c-3.146,0.244-15.882,1.32-18.931,1.586c-0.073,0.006-0.147,0.013-0.22,0.019l10.717-70.664l14.063,1.956
			L365.282,218.665z M489.862,91.804c0.778-1.868,3.003-2.781,4.866-2.004c1.769,0.737,2.693,2.757,2.111,4.579l-16.564,51.289
			l-10.899-4.664C469.377,141.003,489.826,91.89,489.862,91.804z M446.779,152.907c1.036-2.422,3.93-3.577,6.347-2.542
			l33.435,14.308c2.451,1.049,3.591,3.896,2.544,6.345c-1.03,2.408-3.943,3.571-6.347,2.544l-33.435-14.308
			C446.871,158.206,445.731,155.358,446.779,152.907z M455.333,222.911c-5.846-1.751-11.997-3.058-18.394-3.998l17.19-41.285
			l13.906,5.951L455.333,222.911z" class="kIRFysoE_0"></path>
	</g>

<style data-made-with="vivus-instant">.kIRFysoE_0{stroke-dasharray:5862 5864;stroke-dashoffset:5863;animation:kIRFysoE_draw 7000ms linear 0ms forwards;}@keyframes kIRFysoE_draw{100%{stroke-dashoffset:0;}}@keyframes kIRFysoE_fade{0%{stroke-opacity:1;}96.42857142857143%{stroke-opacity:1;}100%{stroke-opacity:0;}}</style></svg>
