<svg stroke="#363636" stroke-width="1.5" fill="none" xmlns="http://www.w3.org/2000/svg" xmlns:xlink="http://www.w3.org/1999/xlink" version="1.1" id="Layer_1" x="0px" y="0px" viewBox="0 0 512.1 512.1" style="" xml:space="preserve" width="512" height="512">

	<path d="m85.332031 290.132812h341.335938c18.839843-.019531 34.109375-15.289062 34.132812-34.132812v-187.734375c-.023437-18.839844-15.292969-34.109375-34.132812-34.132813h-341.335938c-18.839843.023438-34.109375 15.292969-34.132812 34.132813v187.734375c.023437 18.84375 15.292969 34.113281 34.132812 34.132812zm-17.066406-221.867187c.011719-9.421875 7.644531-17.054687 17.066406-17.066406h341.335938c9.421875.011719 17.054687 7.644531 17.066406 17.066406v187.734375c-.011719 9.421875-7.644531 17.058594-17.066406 17.066406h-341.335938c-9.421875-.007812-17.054687-7.644531-17.066406-17.066406zm0 0" class="MqIhOxPI_0"></path><path d="m511.515625 438.097656-17.390625-102.402344c-1.542969-8.921874-6.59375-16.851562-14.023438-22.023437 9.375-8.023437 14.789063-19.730469 14.832032-32.070313v-238.933593c-.027344-23.554688-19.113282-42.6406252-42.667969-42.667969h-392.53125c-23.554687.0273438-42.640625 19.113281-42.667969 42.667969v238.933593c.042969 12.339844 5.457032 24.046876 14.832032 32.070313-7.429688 5.171875-12.480469 13.101563-14.023438 22.023437l-17.390625 102.402344c-.195313 1.515625-.285156 3.046875-.269531 4.578125-.097656.347657-.167969.699219-.214844 1.058594v25.597656c.0273438 23.554688 19.113281 42.640625 42.667969 42.667969h426.664062c23.554688-.027344 42.640625-19.113281 42.667969-42.667969v-17.066406c-.007812-1.082031-.222656-2.152344-.636719-3.15625.660157-3.636719.710938-7.359375.152344-11.011719zm-477.382813-395.429687c.015626-14.132813 11.46875-25.585938 25.601563-25.601563h392.53125c14.132813.015625 25.585937 11.46875 25.601563 25.601563v238.933593c-.015626 14.128907-11.46875 25.582032-25.601563 25.597657h-392.53125c-14.132813-.015625-25.585937-11.46875-25.601563-25.597657zm-16.824218 398.285156 17.390625-102.398437c1.5-8.359376 8.828125-14.402344 17.316406-14.289063h407.96875c8.488281-.113281 15.816406 5.929687 17.316406 14.289063l17.390625 102.398437c.847656 4.871094-.527344 9.863281-3.75 13.609375-3.382812 3.976562-8.347656 6.261719-13.566406 6.238281h-442.75c-5.222656.023438-10.1875-2.261719-13.566406-6.238281-3.222656-3.746094-4.601563-8.738281-3.75-13.609375zm452.023437 53.980469h-426.664062c-12.628907-.035156-23.339844-9.285156-25.214844-21.773438 5.21875 3.035156 11.136719 4.65625 17.171875 4.707032h442.75c6.035156-.050782 11.953125-1.671876 17.171875-4.707032-1.875 12.488282-12.585937 21.738282-25.214844 21.773438zm0 0" class="MqIhOxPI_1"></path><path d="m71.691406 401.066406h368.617188c7.542968 0 14.703125-3.328125 19.566406-9.097656 4.867188-5.765625 6.9375-13.386719 5.667969-20.824219l-1.441407-8.414062c-2.007812-12.367188-12.707031-21.4375-25.230468-21.398438h-365.742188c-12.507812-.046875-23.195312 9-25.21875 21.34375l-1.449218 8.472657c-1.273438 7.4375.800781 15.054687 5.664062 20.820312 4.863281 5.769531 12.023438 9.097656 19.566406 9.097656zm-6.949218-35.5625c.667968-4.109375 4.226562-7.121094 8.386718-7.105468h365.742188c4.179687-.011719 7.746094 3.027343 8.394531 7.160156l1.449219 8.464844c.425781 2.480468-.265625 5.019531-1.886719 6.941406-1.617187 1.925781-4.003906 3.035156-6.519531 3.035156h-368.617188c-2.511718 0-4.898437-1.109375-6.519531-3.03125s-2.3125-4.460938-1.890625-6.941406zm0 0" class="MqIhOxPI_2"></path><path d="m289.695312 415.433594c-1.160156-3.484375-4.421874-5.832032-8.09375-5.832032h-51.203124c-3.671876 0-6.933594 2.347657-8.09375 5.832032l-8.535157 25.601562c-.863281 2.601563-.425781 5.460938 1.175781 7.6875 1.605469 2.222656 4.179688 3.542969 6.921876 3.542969h68.265624c2.742188 0 5.316407-1.320313 6.921876-3.542969 1.601562-2.226562 2.039062-5.085937 1.175781-7.6875zm-55.992187 19.765625 2.847656-8.53125h38.898438l2.847656 8.53125zm0 0" class="MqIhOxPI_3"></path><path d="m187.734375 136.535156c14.136719 0 25.597656-11.464844 25.597656-25.601562 0-14.140625-11.460937-25.601563-25.597656-25.601563-14.140625 0-25.601563 11.460938-25.601563 25.601563.015626 14.132812 11.46875 25.585937 25.601563 25.601562zm0-34.136718c4.710937 0 8.53125 3.820312 8.53125 8.535156 0 4.710937-3.820313 8.53125-8.53125 8.53125-4.714844 0-8.535156-3.820313-8.535156-8.53125.007812-4.710938 3.824219-8.527344 8.535156-8.535156zm0 0" class="MqIhOxPI_4"></path><path d="m324.265625 136.535156c14.140625 0 25.601563-11.464844 25.601563-25.601562 0-14.140625-11.460938-25.601563-25.601563-25.601563-14.136719 0-25.597656 11.460938-25.597656 25.601563.015625 14.132812 11.464843 25.585937 25.597656 25.601562zm0-34.136718c4.714844 0 8.535156 3.820312 8.535156 8.535156 0 4.710937-3.820312 8.53125-8.535156 8.53125-4.710937 0-8.53125-3.820313-8.53125-8.53125.003906-4.710938 3.820313-8.527344 8.53125-8.535156zm0 0" class="MqIhOxPI_5"></path><path d="m321.421875 153.601562h-130.84375c-3.753906 0-7.066406 2.453126-8.160156 6.042969-2.128907 6.953125-3.210938 14.183594-3.21875 21.453125 1.039062 41.667969 35.117187 74.90625 76.800781 74.90625s75.761719-33.238281 76.800781-74.90625c-.007812-7.269531-1.089843-14.5-3.21875-21.453125-1.09375-3.589843-4.40625-6.042969-8.160156-6.042969zm-98.5625 75.578126c8.085937-10.019532 20.265625-15.847657 33.140625-15.847657s25.058594 5.828125 33.144531 15.847657c-20.183593 13.003906-46.101562 13.003906-66.285156 0zm79.132813-11.222657c-11.324219-13.734375-28.191407-21.691406-45.992188-21.691406-17.796875 0-34.664062 7.957031-45.988281 21.691406-11.261719-12.984375-15.960938-30.40625-12.761719-47.289062h117.503906c3.199219 16.882812-1.5 34.304687-12.761718 47.289062zm0 0" class="MqIhOxPI_6"></path><path d="m93.867188 102.398438c4.710937 0 8.53125-3.820313 8.53125-8.53125v-17.066407c0-4.714843-3.820313-8.535156-8.53125-8.535156-4.714844 0-8.535157 3.820313-8.535157 8.535156v17.066407c0 4.710937 3.820313 8.53125 8.535157 8.53125zm0 0" class="MqIhOxPI_7"></path><path d="m93.867188 230.398438c4.710937 0 8.53125-3.820313 8.53125-8.53125v-93.867188c0-4.710938-3.820313-8.535156-8.53125-8.535156-4.714844 0-8.535157 3.824218-8.535157 8.535156v93.867188c0 4.710937 3.820313 8.53125 8.535157 8.53125zm0 0" class="MqIhOxPI_8"></path><style data-made-with="vivus-instant">.MqIhOxPI_0{stroke-dasharray:2438 2440;stroke-dashoffset:2439;animation:MqIhOxPI_draw 1460ms linear 0ms forwards;}.MqIhOxPI_1{stroke-dasharray:5532 5534;stroke-dashoffset:5533;animation:MqIhOxPI_draw 3313ms linear 1460ms forwards;}.MqIhOxPI_2{stroke-dasharray:1718 1720;stroke-dashoffset:1719;animation:MqIhOxPI_draw 1029ms linear 4773ms forwards;}.MqIhOxPI_3{stroke-dasharray:329 331;stroke-dashoffset:330;animation:MqIhOxPI_draw 197ms linear 5802ms forwards;}.MqIhOxPI_4{stroke-dasharray:215 217;stroke-dashoffset:216;animation:MqIhOxPI_draw 129ms linear 6000ms forwards;}.MqIhOxPI_5{stroke-dasharray:215 217;stroke-dashoffset:216;animation:MqIhOxPI_draw 129ms linear 6129ms forwards;}.MqIhOxPI_6{stroke-dasharray:904 906;stroke-dashoffset:905;animation:MqIhOxPI_draw 541ms linear 6259ms forwards;}.MqIhOxPI_7{stroke-dasharray:88 90;stroke-dashoffset:89;animation:MqIhOxPI_draw 53ms linear 6801ms forwards;}.MqIhOxPI_8{stroke-dasharray:242 244;stroke-dashoffset:243;animation:MqIhOxPI_draw 145ms linear 6854ms forwards;}@keyframes MqIhOxPI_draw{100%{stroke-dashoffset:0;}}@keyframes MqIhOxPI_fade{0%{stroke-opacity:1;}96.42857142857143%{stroke-opacity:1;}100%{stroke-opacity:0;}}</style></svg>