<!--?xml version="1.0" encoding="iso-8859-1"?-->
<!-- Generator: Adobe Illustrator 19.0.0, SVG Export Plug-In . SVG Version: 6.00 Build 0)  -->
<svg stroke="#363636" stroke-width="1.5" fill="none" xmlns="http://www.w3.org/2000/svg" xmlns:xlink="http://www.w3.org/1999/xlink" version="1.1" id="Layer_1" x="0px" y="0px" viewBox="0 0 512.1 512.1" style="" xml:space="preserve" width="512" height="512">
	
<path d="M504.312,239.614c2.815-7.855,4.355-16.417,4.679-25.931c1.23-36.139-21.151-71.564-57.77-92.682  c-5.333-26.344-19.623-49.229-40.966-65.258c-20.134-15.121-45.014-23.203-70.941-23.203c-0.437,0-0.875,0.002-1.313,0.007  C303.543,4.093,278.719,0.003,257.003,0.003c-21.614,0-48.228,4.009-82.98,32.545c-26.392-0.303-51.794,7.817-72.271,23.196  c-21.345,16.03-35.636,38.922-40.968,65.268c-35.468,20.515-57.828,54.896-57.78,90.019c0.014,10.485,1.554,19.922,4.686,28.602  c-6.891,24.194-7.681,66.734-7.685,67.225c-0.196,26.847,8.688,64.268,28.978,87.351c36.041,41.001,90.945,70.233,130.657,87.535  c42.9,18.691,83.423,30.261,96.364,30.261c13.758,0,54.443-12.482,90.692-27.825c10.172-4.305,14.928-16.041,10.623-26.214  c-4.305-10.172-16.042-14.928-26.213-10.622c-37.698,15.956-68.298,23.912-75.104,24.635  c-15.559-1.623-138.945-38.16-196.975-104.178c-12.539-14.265-19.16-41.896-19.022-60.649c0.029-3.973,0.216-8.645,0.522-13.596  c22.713,33.261,56.703,78.849,93.714,113.959c3.869,3.67,8.819,5.49,13.761,5.49c5.295,0,10.581-2.091,14.513-6.235  c7.602-8.014,7.269-20.672-0.745-28.274c-57.73-54.766-109.93-140.606-114.974-149.004c-2.567-5.174-3.78-11.067-3.79-18.513  C42.98,194.33,52.8,177.04,68.73,164.005c20.081,51.049,51.325,111.029,77.133,160.566c5.424,10.41,10.547,20.243,15.358,29.588  c3.549,6.892,10.545,10.848,17.798,10.848c3.082,0,6.211-0.715,9.139-2.223c9.82-5.057,13.682-17.117,8.625-26.938  c-4.855-9.429-10-19.303-15.447-29.758c-28.477-54.657-63.722-122.311-81.893-174.158c6.292-39.402,40.883-59.292,73.536-59.365  c7.587,68.779,18.07,129.541,27.412,183.631c3.986,23.08,7.751,44.881,10.846,64.866c1.53,9.879,10.044,16.942,19.74,16.942  c1.018,0,2.049-0.078,3.085-0.238c10.916-1.69,18.394-11.909,16.704-22.825c-3.148-20.329-6.942-42.296-10.958-65.553  c-9.855-57.061-20.994-121.627-28.516-194.792c21.812-14.584,36.314-14.595,45.71-14.595c9.336,0,22.516,0.013,43.731,14.478  c-8.701,85.195-20.697,160.719-30.365,221.564c-2.167,13.636-4.212,26.515-6.13,38.897c-1.69,10.916,5.789,21.135,16.704,22.825  c1.038,0.16,2.067,0.238,3.085,0.238c9.694,0,18.21-7.064,19.74-16.942c1.905-12.306,3.945-25.146,6.105-38.741  c9.215-57.997,20.53-129.22,29.186-209.755c32.644,0.09,67.214,19.977,73.503,59.365c-18.579,53.089-54.243,121.777-83.056,177.264  c-4.615,8.887-9.073,17.472-13.284,25.65c-5.057,9.82-1.195,21.881,8.625,26.938c2.929,1.508,6.057,2.223,9.139,2.223  c7.252,0,14.25-3.957,17.798-10.848c4.191-8.141,8.628-16.685,13.221-25.529c26.171-50.4,57.873-111.461,78.304-163.646  c16.446,13.396,26.287,31.224,25.705,48.339c-0.244,7.151-1.51,12.729-3.984,17.555c-0.032,0.063-0.059,0.127-0.09,0.191  c-0.018,0.036-0.04,0.068-0.057,0.103c-0.473,0.961-47.996,96.594-112.242,147.11c-8.683,6.827-10.187,19.4-3.36,28.084  c3.946,5.019,9.811,7.639,15.736,7.639c4.326,0,8.684-1.397,12.349-4.279c39.518-31.073,72.482-75.797,94.384-110.233  c0.145,3.107,0.235,6.037,0.254,8.657c0.137,18.754-6.483,46.385-19.022,60.649c-9.853,11.208-22.335,22.316-37.1,33.015  c-8.944,6.48-10.941,18.985-4.46,27.93c6.48,8.944,18.984,10.943,27.93,4.461c17.168-12.439,31.861-25.56,43.674-38.997  c20.29-23.083,29.174-60.504,28.978-87.351C511.998,306.365,511.207,263.805,504.312,239.614z" class="tLrKxAEu_0"></path>

<style data-made-with="vivus-instant">.tLrKxAEu_0{stroke-dasharray:5543 5545;stroke-dashoffset:5544;animation:tLrKxAEu_draw 5000ms linear 0ms forwards;}@keyframes tLrKxAEu_draw{100%{stroke-dashoffset:0;}}@keyframes tLrKxAEu_fade{0%{stroke-opacity:1;}95.65217391304348%{stroke-opacity:1;}100%{stroke-opacity:0;}}</style></svg>
